<?xml version="1.0" encoding="UTF-8" standalone="no"?>
<svg
   height="700"
   viewBox="0 0 700.00001 699.99999"
   width="700"
   version="1.1"
   id="svg594"
   xml:space="preserve"
   xmlns="http://www.w3.org/2000/svg"
   xmlns:svg="http://www.w3.org/2000/svg"><defs
     id="defs598"><linearGradient
       id="1"><stop
         style="stop-color:#000000;stop-opacity:1;"
         offset="0"
         id="stop1367" /><stop
         style="stop-color:#000000;stop-opacity:0;"
         offset="1"
         id="stop1369" /></linearGradient><linearGradient
       id="linearGradient1340"><stop
         style="stop-color:#000000;stop-opacity:1;"
         offset="0"
         id="stop1338" /></linearGradient></defs><linearGradient
     id="a"
     gradientUnits="userSpaceOnUse"
     x1="243.209"
     x2="248.22099"
     y1="156.26401"
     y2="543.01398"><stop
       offset=".194"
       stop-color="#0093ff"
       id="stop566" /><stop
       offset="1"
       stop-color="#00307c"
       stop-opacity=".971"
       id="stop568" /><stop
       offset="1"
       stop-color="#647191"
       id="stop570" /></linearGradient><radialGradient
     id="b"
     cx="245.979"
     cy="269.27899"
     gradientUnits="userSpaceOnUse"
     r="75.721001"><stop
       offset="0"
       stop-color="#fff"
       id="stop573" /><stop
       offset="1"
       stop-color="#bfbfbf"
       id="stop575" /></radialGradient><path
     style="opacity:1;fill:#ff0000;stroke:#000000;stroke-width:9.24393;stroke-dasharray:none;stroke-opacity:1;paint-order:fill markers stroke"
     d=""
     id="path6042" /><path
     style="fill:#ffffff;stroke:#000000;stroke-width:1.655;stroke-dasharray:none;stroke-opacity:1;paint-order:fill markers stroke"
     d="m 302.94441,609.20428 c 0,-25.91505 -0.51185,-33.88701 -2.18217,-33.98631 -1.20018,-0.0714 -16.36794,-0.0302 -33.70608,0.0911 l -31.52393,0.22099 -0.19915,-41.39303 -0.19914,-41.39303 30.85021,0.17161 c 16.9676,0.0943 32.22496,0.10044 33.90523,0.0133 2.61359,-0.13543 3.05503,-1.89058 3.05503,-12.14677 v -11.98845 l -19.63945,-4.72336 C 190.03841,441.63941 119.0727,369.86066 107.81016,286.56506 c -2.1476,-15.88337 -1.12248,-48.1137 1.98746,-62.48629 8.75342,-40.45407 26.24079,-71.64 57.25664,-102.10822 32.84402,-32.264105 70.49844,-52.97065 116.71988,-64.185447 26.3849,-6.401822 41.88915,-7.885087 74.16072,-7.094828 25.78291,0.631365 32.44607,1.390755 50.77595,5.78687 43.03394,10.320969 72.1694,24.213633 104.72784,49.937395 38.54586,30.45433 64.15013,70.46121 74.07382,115.74103 4.14866,18.9294 4.56656,55.2106 0.84863,73.67247 -16.35919,81.23344 -82.43557,145.08367 -174.12039,168.25415 l -18.76047,4.74113 -0.007,11.97368 -0.007,11.97366 h 34.94985 34.94985 l -0.13268,41.28851 -0.13267,41.28853 h -34.81712 -34.81713 v 33.85658 33.85658 h -46.26181 -46.26181 v -33.85658 z m -5.88294,-230.24417 c -1.65077,-9.76641 -6.83555,-20.00713 -18.48425,-36.50926 -5.80106,-8.21807 -10.5474,-15.25209 -10.5474,-15.63115 0,-0.37908 -2.76796,-4.99981 -6.15101,-10.26829 -9.30768,-14.49494 -13.70405,-29.70788 -12.26333,-42.43525 1.0016,-8.84805 0.60914,-11.43944 -2.62011,-17.3006 -2.16481,-3.92922 -3.40493,-8.47618 -2.88378,-10.57354 0.50289,-2.02387 1.36253,-5.50365 1.91031,-7.73283 1.22293,-4.97673 4.86462,-8.51434 15.85684,-15.40363 7.87771,-4.93731 11.41224,-10.57889 14.83058,-23.67164 0.0271,-0.1035 2.99507,-2.08236 6.59564,-4.39734 3.60055,-2.31498 10.9467,-5.04697 16.32473,-6.0711 7.05893,-1.3442 11.18558,-3.26359 14.8387,-6.90182 7.16941,-7.14014 16.7426,-11.34344 25.83525,-11.34344 5.3441,0 11.03294,-1.59784 17.96327,-5.04541 15.66401,-7.79222 27.37767,-4.94167 38.05023,9.25959 6.30701,8.39231 6.4293,10.6497 0.57685,10.6497 -1.98281,0 -9.6947,2.60117 -17.13753,5.7804 -7.44283,3.1792 -14.33052,5.78038 -15.30599,5.78038 -0.97547,0 -2.45532,-3.53017 -3.28854,-7.84482 -1.00584,-5.20854 -2.38928,-7.84482 -4.11674,-7.84482 -2.01288,0 -2.5275,1.93802 -2.27359,8.56185 0.32097,8.37249 0.20515,8.58734 -5.23717,9.71406 -3.06096,0.63371 -10.2217,3.28384 -15.9127,5.88914 -11.50033,5.26475 -13.22005,5.62652 -13.22005,2.78104 0,-3.81586 -7.32988,-16.21107 -9.58637,-16.21107 -1.86991,0 -1.84125,1.41701 0.1557,7.69441 1.34626,4.23194 2.44775,10.45226 2.44775,13.82295 0,3.3707 1.59826,10.86159 3.55167,16.64646 3.97095,11.75943 4.88762,16.88908 5.05916,28.31069 0.0648,4.31464 0.82503,7.84482 1.68942,7.84482 2.3231,0 5.89228,-15.71338 5.07446,-22.34056 -0.81618,-6.61387 -1.35403,-6.43565 9.77935,-3.24045 4.71333,1.3527 11.50308,2.45944 15.08836,2.45944 6.9384,0 8.63797,1.8536 8.63797,9.42077 0,3.47668 0.43361,3.85557 2.5293,2.21013 1.3911,-1.09224 3.41148,-4.51465 4.48966,-7.60541 1.68441,-4.82841 3.21615,-5.9723 10.88054,-8.12558 4.90607,-1.37834 11.14925,-2.50608 13.87373,-2.50608 4.51916,0 4.85264,0.39832 3.80247,4.54174 -3.05797,12.06523 -10.23116,18.56891 -24.22845,21.96711 -3.84061,0.9324 -9.8394,3.15287 -13.33066,4.93439 -4.67195,2.384 -9.7542,3.23913 -19.25102,3.23913 -9.12485,0 -14.09816,0.79177 -16.98386,2.70393 -2.59152,1.71725 -8.75472,2.92592 -16.88935,3.31217 -8.98302,0.42657 -14.66463,1.64416 -19.02231,4.07652 -7.68647,4.29044 -12.58797,3.35662 -24.00747,-4.5738 -10.3187,-7.16593 -11.22785,-4.05481 -1.7635,6.03475 5.38322,5.73883 8.09812,7.2405 14.84036,8.20853 7.02209,1.00818 9.14837,0.60842 14.26761,-2.68252 4.84773,-3.11639 8.32169,-3.86847 17.89205,-3.87344 8.78769,-0.005 13.36277,-0.86357 17.59209,-3.30309 3.14372,-1.81329 7.73435,-3.29689 10.20141,-3.29689 3.66609,0 2.01677,1.57787 -9.02764,8.63668 -15.8499,10.13009 -48.72833,43.99291 -45.59351,46.95861 1.8592,1.75888 8.78217,-3.62654 25.6719,-19.9703 15.95355,-15.43782 36.62908,-30.60809 45.1272,-33.11118 l 4.16352,-1.22636 -4.36288,5.54956 c -7.41147,9.42735 -16.65086,26.58023 -19.44686,36.10304 -3.56914,12.15593 -5.34321,24.77451 -3.48207,24.76715 0.82914,-0.004 4.08175,-6.50623 7.22802,-14.45099 13.28467,-33.54547 25.03572,-48.789 49.79591,-64.59555 l 12.62245,-8.05799 3.02732,8.60295 c 1.66499,4.73163 3.04452,11.13982 3.06561,14.2404 0.0449,6.61758 5.87977,19.67555 8.79174,19.67555 1.2689,0 1.52003,-1.07274 0.67657,-2.89021 -0.73771,-1.5896 -1.56308,-8.46414 -1.83419,-15.27674 -0.27109,-6.81261 -1.71552,-15.14967 -3.20981,-18.52678 -1.84416,-4.1678 -2.71692,-11.43902 -2.71692,-22.63543 V 225.3676 l -7.20239,2.40404 c -3.96133,1.32223 -9.33739,2.40405 -11.94681,2.40405 -2.60942,0 -9.38447,1.53767 -15.05564,3.41702 -12.13904,4.02274 -25.79775,3.67818 -36.49716,-0.92071 l -6.98292,-3.00145 5.23719,-1.14639 5.23718,-1.14641 -6.4271,-2.70485 c -3.53491,-1.48769 -6.85509,-3.35999 -7.37818,-4.1607 -2.20996,-3.38285 14.29287,-12.06632 27.20323,-14.31381 l 6.41502,-1.11674 -0.50182,5.98347 c -0.27602,3.29091 0.13651,6.3567 0.91671,6.81288 1.5726,0.91947 4.96482,-4.37525 6.67182,-10.41359 0.80289,-2.84014 3.88565,-4.98035 11.25524,-7.81398 9.25113,-3.55708 23.29676,-11.46426 25.64152,-14.43525 0.52262,-0.66218 3.84635,-0.44745 7.38608,0.47718 7.73747,2.02115 12.86206,7.97384 21.30292,24.74531 3.40643,6.76836 8.101,15.65045 10.43239,19.73802 7.05813,12.37477 13.57047,32.66774 13.70664,42.71091 0.28257,20.84137 -3.20627,27.1289 -27.61948,49.77537 -21.91547,20.32946 -34.01454,39.64139 -34.01454,54.29225 0,10.50656 1.31494,10.68153 19.25227,2.56169 18.94129,-8.5743 30.63776,-16.30876 44.60552,-29.49606 28.57441,-26.97779 42.58647,-64.64411 37.49992,-100.80492 -7.3013,-51.90579 -44.45276,-91.97786 -100.88413,-108.81495 -72.28476,-21.56719 -151.18516,8.38012 -183.68759,69.72019 -12.64431,23.8629 -16.11624,56.63668 -8.84802,83.52189 6.94929,25.70548 25.64377,52.2125 48.2763,68.45129 10.60547,7.6094 40.85207,23.30619 44.93876,23.32145 0.84283,0.004 1.04103,-2.90145 0.44043,-6.45469 z m -1.68022,-118.15488 c 1.78689,-4.88276 1.88022,-7.89533 0.40516,-13.0777 -2.27477,-7.99206 -11.16802,-25.10184 -13.86782,-26.68038 -3.01099,-1.76048 -3.87571,0.27253 -1.72954,4.06632 3.3165,5.8626 8.78952,28.28984 8.78952,36.01755 0,8.9362 3.07041,8.77998 6.40268,-0.32579 z"
     id="path6119-1" /></svg>
